<svg xmlns="http://www.w3.org/2000/svg" version="1.1" xmlns:xlink="http://www.w3.org/1999/xlink" xmlns:svgjs="http://svgjs.dev/svgjs" width="100%" height="100%" viewBox="0 0 1000 600"><rect width="1000" height="600" x="0" y="0" fill="#ffffff"/><g><circle r="166.66666666666666" cx="431.94437662760413" cy="454.1666247258597" fill="#000000" transform="matrix(0.4712042292877817,0,0,0.47120422928778166,0,85.99475232630914)"/><path d="M401.9443567064134 499.16662900779625L371.9443567064134 499.16662900779625L371.9443567064134 379.16662900779625L401.9443567064134 379.16662900779625L401.9443567064134 499.16662900779625ZM341.9443567064134 499.16662900779625L311.9443567064134 499.16662900779625L311.9443567064134 469.16662900779625L341.9443567064134 469.16662900779625L341.9443567064134 499.16662900779625ZM341.9443567064134 529.1666290077962L341.9443567064134 499.16662900779625L371.9443567064134 499.16662900779625L371.9443567064134 529.1666290077962L341.9443567064134 529.1666290077962ZM461.9443567064134 469.16662900779625L461.9443567064134 499.16662900779625L521.9443567064134 499.16662900779625L521.9443567064134 529.1666290077962L431.9443567064134 529.1666290077962L431.9443567064134 379.16662900779625L521.9443567064134 379.16662900779625L521.9443567064134 409.16662900779625L461.9443567064134 409.16662900779625L461.9443567064134 439.16662900779625L521.9443567064134 439.16662900779625L521.9443567064134 469.16662900779625L461.9443567064134 469.16662900779625ZM551.9443567064134 409.16662900779625L551.9443567064134 439.16662900779625L521.9443567064134 439.16662900779625L521.9443567064134 409.16662900779625L551.9443567064134 409.16662900779625ZM551.9443567064134 469.16662900779625L551.9443567064134 499.16662900779625L521.9443567064134 499.16662900779625L521.9443567064134 469.16662900779625L551.9443567064134 469.16662900779625Z " fill="#ffffff" transform="matrix(0.4712042292877817,0,0,0.47120422928778166,0,85.99475232630914)"/><path d="M756.9443567064133 504.16662900779625L731.9443567064133 504.16662900779625L731.9443567064133 404.16662900779625L756.9443567064133 404.16662900779625L756.9443567064133 504.16662900779625ZM706.9443567064133 504.16662900779625L681.9443567064133 504.16662900779625L681.9443567064133 479.16662900779625L706.9443567064133 479.16662900779625L706.9443567064133 504.16662900779625ZM706.9443567064133 529.1666290077962L706.9443567064133 504.16662900779625L731.9443567064133 504.16662900779625L731.9443567064133 529.1666290077962L706.9443567064133 529.1666290077962ZM856.9443567064133 529.1666290077962L806.9443567064133 529.1666290077962L806.9443567064133 504.16662900779625L781.9443567064133 504.16662900779625L781.9443567064133 429.16662900779625L806.9443567064133 429.16662900779625L806.9443567064133 504.16662900779625L831.9443567064133 504.16662900779625L831.9443567064133 429.16662900779625L856.9443567064133 429.16662900779625L856.9443567064133 529.1666290077962ZM881.9443567064133 454.16662900779625L906.9443567064133 454.16662900779625L906.9443567064133 429.16662900779625L956.9443567064133 429.16662900779625L956.9443567064133 454.16662900779625L931.9443567064133 454.16662900779625L931.9443567064133 479.16662900779625L881.9443567064133 479.16662900779625L881.9443567064133 454.16662900779625ZM956.9443567064133 479.16662900779625L956.9443567064133 504.16662900779625L931.9443567064133 504.16662900779625L931.9443567064133 479.16662900779625L956.9443567064133 479.16662900779625ZM881.9443567064133 504.16662900779625L931.9443567064133 504.16662900779625L931.9443567064133 529.1666290077962L881.9443567064133 529.1666290077962L881.9443567064133 504.16662900779625ZM1006.9443567064133 454.16662900779625L1006.9443567064133 504.16662900779625L981.9443567064133 504.16662900779625L981.9443567064133 404.16662900779625L1006.9443567064133 404.16662900779625L1006.9443567064133 429.16662900779625L1031.9443567064131 429.16662900779625L1031.9443567064131 454.16662900779625L1006.9443567064133 454.16662900779625ZM1031.9443567064131 529.1666290077962L1006.9443567064133 529.1666290077962L1006.9443567064133 504.16662900779625L1031.9443567064131 504.16662900779625L1031.9443567064131 529.1666290077962ZM1081.9443567064131 404.16662900779625L1056.9443567064131 404.16662900779625L1056.9443567064131 379.16662900779625L1081.9443567064131 379.16662900779625L1081.9443567064131 404.16662900779625ZM1081.9443567064131 429.16662900779625L1081.9443567064131 529.1666290077962L1056.9443567064131 529.1666290077962L1056.9443567064131 429.16662900779625L1081.9443567064131 429.16662900779625ZM1131.9443567064131 454.16662900779625L1131.9443567064131 529.1666290077962L1106.9443567064131 529.1666290077962L1106.9443567064131 429.16662900779625L1156.9443567064131 429.16662900779625L1156.9443567064131 454.16662900779625L1131.9443567064131 454.16662900779625ZM1181.9443567064131 454.16662900779625L1181.9443567064131 529.1666290077962L1156.9443567064131 529.1666290077962L1156.9443567064131 454.16662900779625L1181.9443567064131 454.16662900779625ZM1281.9443567064131 479.16662900779625L1281.9443567064131 504.16662900779625L1331.9443567064131 504.16662900779625L1331.9443567064131 529.1666290077962L1256.9443567064131 529.1666290077962L1256.9443567064131 404.16662900779625L1331.9443567064131 404.16662900779625L1331.9443567064131 429.16662900779625L1281.9443567064131 429.16662900779625L1281.9443567064131 454.16662900779625L1331.9443567064131 454.16662900779625L1331.9443567064131 479.16662900779625L1281.9443567064131 479.16662900779625ZM1356.9443567064131 429.16662900779625L1356.9443567064131 454.16662900779625L1331.9443567064131 454.16662900779625L1331.9443567064131 429.16662900779625L1356.9443567064131 429.16662900779625ZM1356.9443567064131 479.16662900779625L1356.9443567064131 504.16662900779625L1331.9443567064131 504.16662900779625L1331.9443567064131 479.16662900779625L1356.9443567064131 479.16662900779625ZM1406.9443567064131 404.16662900779625L1406.9443567064131 529.1666290077962L1381.9443567064131 529.1666290077962L1381.9443567064131 404.16662900779625L1406.9443567064131 404.16662900779625ZM1456.9443567064131 479.16662900779625L1456.9443567064131 504.16662900779625L1431.9443567064131 504.16662900779625L1431.9443567064131 454.16662900779625L1456.9443567064131 454.16662900779625L1456.9443567064131 429.16662900779625L1481.9443567064131 429.16662900779625L1481.9443567064131 454.16662900779625L1506.9443567064131 454.16662900779625L1506.9443567064131 479.16662900779625L1456.9443567064131 479.16662900779625ZM1506.9443567064131 529.1666290077962L1456.9443567064131 529.1666290077962L1456.9443567064131 504.16662900779625L1506.9443567064131 504.16662900779625L1506.9443567064131 529.1666290077962ZM1606.9443567064131 454.16662900779625L1556.9443567064131 454.16662900779625L1556.9443567064131 429.16662900779625L1606.9443567064131 429.16662900779625L1606.9443567064131 454.16662900779625ZM1556.9443567064131 454.16662900779625L1556.9443567064131 504.16662900779625L1531.9443567064131 504.16662900779625L1531.9443567064131 454.16662900779625L1556.9443567064131 454.16662900779625ZM1606.9443567064131 529.1666290077962L1556.9443567064131 529.1666290077962L1556.9443567064131 504.16662900779625L1606.9443567064131 504.16662900779625L1606.9443567064131 529.1666290077962ZM1656.9443567064131 454.16662900779625L1656.9443567064131 529.1666290077962L1631.9443567064131 529.1666290077962L1631.9443567064131 404.16662900779625L1656.9443567064131 404.16662900779625L1656.9443567064131 429.16662900779625L1681.9443567064131 429.16662900779625L1681.9443567064131 454.16662900779625L1656.9443567064131 454.16662900779625ZM1706.9443567064131 454.16662900779625L1706.9443567064131 529.1666290077962L1681.9443567064131 529.1666290077962L1681.9443567064131 454.16662900779625L1706.9443567064131 454.16662900779625ZM1756.9443567064131 479.16662900779625L1756.9443567064131 504.16662900779625L1731.9443567064131 504.16662900779625L1731.9443567064131 454.16662900779625L1756.9443567064131 454.16662900779625L1756.9443567064131 429.16662900779625L1781.9443567064131 429.16662900779625L1781.9443567064131 454.16662900779625L1806.9443567064131 454.16662900779625L1806.9443567064131 479.16662900779625L1756.9443567064131 479.16662900779625ZM1806.9443567064131 529.1666290077962L1756.9443567064131 529.1666290077962L1756.9443567064131 504.16662900779625L1806.9443567064131 504.16662900779625L1806.9443567064131 529.1666290077962ZM1856.9443567064131 404.16662900779625L1856.9443567064131 529.1666290077962L1831.9443567064131 529.1666290077962L1831.9443567064131 404.16662900779625L1856.9443567064131 404.16662900779625Z " fill="#000000" transform="matrix(0.4712042292877817,0,0,0.47120422928778166,0,85.99475232630914)"/></g></svg>